<mxfile host="app.diagrams.net" modified="2023-10-22T09:46:06.663Z" agent="Mozilla/5.0 (Windows NT 10.0; Win64; x64) AppleWebKit/537.36 (KHTML, like Gecko) Chrome/118.0.0.0 Safari/537.36 Edg/118.0.2088.61" etag="MZPYoPSOclKGhJM-Y9NP" version="22.0.6" type="github">
  <diagram id="C5RBs43oDa-KdzZeNtuy" name="Page-1">
    <mxGraphModel dx="704" dy="741" grid="1" gridSize="10" guides="1" tooltips="1" connect="1" arrows="1" fold="1" page="1" pageScale="1" pageWidth="827" pageHeight="1169" math="0" shadow="0">
      <root>
        <mxCell id="WIyWlLk6GJQsqaUBKTNV-0" />
        <mxCell id="WIyWlLk6GJQsqaUBKTNV-1" parent="WIyWlLk6GJQsqaUBKTNV-0" />
        <mxCell id="FAzehwiRH1MLIlhiyja--5" value="" style="edgeStyle=orthogonalEdgeStyle;rounded=0;orthogonalLoop=1;jettySize=auto;html=1;" edge="1" parent="WIyWlLk6GJQsqaUBKTNV-1" source="FAzehwiRH1MLIlhiyja--0" target="FAzehwiRH1MLIlhiyja--1">
          <mxGeometry relative="1" as="geometry" />
        </mxCell>
        <mxCell id="FAzehwiRH1MLIlhiyja--0" value="เริ่ม" style="strokeWidth=2;html=1;shape=mxgraph.flowchart.terminator;whiteSpace=wrap;" vertex="1" parent="WIyWlLk6GJQsqaUBKTNV-1">
          <mxGeometry x="350" y="40" width="100" height="40" as="geometry" />
        </mxCell>
        <mxCell id="FAzehwiRH1MLIlhiyja--6" value="" style="edgeStyle=orthogonalEdgeStyle;rounded=0;orthogonalLoop=1;jettySize=auto;html=1;" edge="1" parent="WIyWlLk6GJQsqaUBKTNV-1" source="FAzehwiRH1MLIlhiyja--1" target="FAzehwiRH1MLIlhiyja--2">
          <mxGeometry relative="1" as="geometry" />
        </mxCell>
        <mxCell id="FAzehwiRH1MLIlhiyja--1" value="เรียกใช้&amp;nbsp;library" style="shape=parallelogram;html=1;strokeWidth=2;perimeter=parallelogramPerimeter;whiteSpace=wrap;rounded=1;arcSize=12;size=0.23;" vertex="1" parent="WIyWlLk6GJQsqaUBKTNV-1">
          <mxGeometry x="350" y="120" width="100" height="60" as="geometry" />
        </mxCell>
        <mxCell id="FAzehwiRH1MLIlhiyja--8" value="" style="edgeStyle=orthogonalEdgeStyle;rounded=0;orthogonalLoop=1;jettySize=auto;html=1;" edge="1" parent="WIyWlLk6GJQsqaUBKTNV-1" source="FAzehwiRH1MLIlhiyja--2" target="FAzehwiRH1MLIlhiyja--7">
          <mxGeometry relative="1" as="geometry" />
        </mxCell>
        <mxCell id="FAzehwiRH1MLIlhiyja--2" value="กำหนดค่าตัวแปรต่างๆที่ต้องใช้" style="rounded=1;whiteSpace=wrap;html=1;absoluteArcSize=1;arcSize=14;strokeWidth=2;" vertex="1" parent="WIyWlLk6GJQsqaUBKTNV-1">
          <mxGeometry x="315" y="230" width="170" height="70" as="geometry" />
        </mxCell>
        <mxCell id="FAzehwiRH1MLIlhiyja--7" value="สร้าง function wake-up" style="rounded=1;whiteSpace=wrap;html=1;absoluteArcSize=1;arcSize=14;strokeWidth=2;" vertex="1" parent="WIyWlLk6GJQsqaUBKTNV-1">
          <mxGeometry x="315" y="337" width="170" height="70" as="geometry" />
        </mxCell>
        <mxCell id="FAzehwiRH1MLIlhiyja--10" value="เชื่อมต่อ wifi และ mqtt" style="rounded=1;whiteSpace=wrap;html=1;absoluteArcSize=1;arcSize=14;strokeWidth=2;" vertex="1" parent="WIyWlLk6GJQsqaUBKTNV-1">
          <mxGeometry x="315" y="450" width="170" height="70" as="geometry" />
        </mxCell>
        <mxCell id="FAzehwiRH1MLIlhiyja--11" value="ยังไม่ได้&lt;br&gt;เชื่อมwifi ?" style="strokeWidth=2;html=1;shape=mxgraph.flowchart.decision;whiteSpace=wrap;" vertex="1" parent="WIyWlLk6GJQsqaUBKTNV-1">
          <mxGeometry x="350" y="570" width="100" height="100" as="geometry" />
        </mxCell>
        <mxCell id="FAzehwiRH1MLIlhiyja--12" value="พิมพ์ &quot;.&quot;" style="rounded=1;whiteSpace=wrap;html=1;absoluteArcSize=1;arcSize=14;strokeWidth=2;" vertex="1" parent="WIyWlLk6GJQsqaUBKTNV-1">
          <mxGeometry x="160" y="720" width="170" height="70" as="geometry" />
        </mxCell>
      </root>
    </mxGraphModel>
  </diagram>
</mxfile>
